{
  "accessors": [
    {
      "bufferView": 1,
      "componentType": 5126,
      "count": 2207,
      "max": [
        0.81279999017715454,
        0.44780001044273376,
        1.1553000211715698
      ],
      "min": [
        -0.44780001044273376,
        -0.44780001044273376,
        0.0017000000225380063
      ],
      "type": "VEC3"
    },
    {
      "bufferView": 1,
      "byteOffset": 26484,
      "componentType": 5126,
      "count": 2207,
      "max": [
        0.99995744228363037,
        0.99998772144317627,
        0.99999940395355225
      ],
      "min": [
        -0.99995887279510498,
        -0.99998700618743896,
        -1
      ],
      "type": "VEC3"
    },
    {
      "bufferView": 0,
      "componentType": 5125,
      "count": 13104,
      "max": [
        2206
      ],
      "min": [
        0
      ],
      "type": "SCALAR"
    },
    {
      "bufferView": 1,
      "byteOffset": 52968,
      "componentType": 5126,
      "count": 529,
      "max": [
        0.41139999032020569,
        0.41139999032020569,
        1.1548999547958374
      ],
      "min": [
        -0.41139999032020569,
        -0.41139999032020569,
        0.13369999825954437
      ],
      "type": "VEC3"
    },
    {
      "bufferView": 1,
      "byteOffset": 59316,
      "componentType": 5126,
      "count": 529,
      "max": [
        0.99985301494598389,
        0.99984711408615112,
        1
      ],
      "min": [
        -0.99985301494598389,
        -0.99984711408615112,
        0.013999342918395996
      ],
      "type": "VEC3"
    },
    {
      "bufferView": 0,
      "byteOffset": 52416,
      "componentType": 5125,
      "count": 3024,
      "max": [
        528
      ],
      "min": [
        0
      ],
      "type": "SCALAR"
    }
  ],
  "asset": {
    "generator": "Sketchfab (OSG glTF plugin)",
    "version": "2.0"
  },
  "bufferViews": [
    {
      "buffer": 0,
      "byteLength": 64512,
      "byteOffset": 0,
      "name": "floatBufferViews",
      "target": 34963
    },
    {
      "buffer": 0,
      "byteLength": 65664,
      "byteOffset": 64512,
      "byteStride": 12,
      "name": "floatBufferViews",
      "target": 34962
    }
  ],
  "buffers": [
    {
      "byteLength": 130176,
      "uri": "scene.bin"
    }
  ],
  "materials": [
    {
      "doubleSided": true,
      "name": "material_0",
      "pbrMetallicRoughness": {
        "baseColorFactor": [
          0.5,
          0.5,
          0.5,
          1
        ]
      }
    }
  ],
  "meshes": [
    {
      "primitives": [
        {
          "attributes": {
            "NORMAL": 1,
            "POSITION": 0
          },
          "indices": 2,
          "material": 0,
          "mode": 4
        }
      ]
    },
    {
      "primitives": [
        {
          "attributes": {
            "NORMAL": 4,
            "POSITION": 3
          },
          "indices": 5,
          "material": 0,
          "mode": 4
        }
      ]
    }
  ],
  "nodes": [
    {
      "children": [
        1
      ],
      "name": "RootNode (gltf orientation matrix)",
      "rotation": [
        -0.70710678118654746,
        -0,
        -0,
        0.70710678118654757
      ]
    },
    {
      "children": [
        2
      ],
      "name": "RootNode (model correction matrix)"
    },
    {
      "children": [
        3
      ],
      "name": "be91e814f6ab4eff8a36bedec6158968.obj.cleaner"
    },
    {
      "children": [
        4,
        5
      ],
      "name": "Geode"
    },
    {
      "mesh": 0,
      "name": ""
    },
    {
      "mesh": 1,
      "name": ""
    }
  ],
  "scene": 0,
  "scenes": [
    {
      "name": "OSG_Scene",
      "nodes": [
        0
      ]
    }
  ]
}

